<svg width="25" height="24" viewBox="0 0 25 24" fill="none" xmlns="http://www.w3.org/2000/svg">
<path fill-rule="evenodd" clip-rule="evenodd" d="M8.81606 0.480343C8.72775 0.523842 8.59726 0.63573 8.52606 0.72901C8.40373 0.889181 8.39566 0.932921 8.38068 1.51503C8.35864 2.37238 8.30688 2.33232 9.43568 2.33232H10.3057V3.10562C10.3057 3.84669 10.3017 3.87893 10.209 3.87893C10.1558 3.87893 10.0688 3.92243 10.0157 3.97559C9.92824 4.06303 9.91901 4.13668 9.91901 4.74547V5.41868L9.65255 5.47402C8.78421 5.65425 8.0162 6.35994 7.70958 7.25935C7.60388 7.56949 7.60151 7.62512 7.6003 9.84099C7.59909 11.9783 7.59431 12.1037 7.51446 12.0716C7.46792 12.0529 7.27947 12.0181 7.09566 11.9943C6.68749 11.9414 6.55569 11.8609 6.49006 11.6245C6.41103 11.3399 6.42413 11.2254 6.53573 11.2254C6.5889 11.2254 6.67589 11.1819 6.72906 11.1287C6.8193 11.0385 6.82572 10.9676 6.82572 10.0654C6.82572 9.16318 6.8193 9.09233 6.72906 9.00209C6.63597 8.90901 6.56797 8.90543 4.89242 8.90543C3.21688 8.90543 3.14888 8.90901 3.05579 9.00209C2.96555 9.09233 2.95912 9.16318 2.95912 10.0654C2.95912 10.9676 2.96555 11.0385 3.05579 11.1287C3.10895 11.1819 3.1989 11.2254 3.25569 11.2254C3.35018 11.2254 3.35642 11.2437 3.32925 11.4418C3.27483 11.839 3.16077 11.9337 2.66154 11.9964C1.99586 12.08 1.45381 12.4664 1.17855 13.0535L1.04999 13.3278V17.6051V21.8825L1.17855 22.1568C1.35859 22.5408 1.65559 22.8441 2.03384 23.0304L2.35289 23.1874L4.86719 23.1832C6.25008 23.1809 7.45767 23.1774 7.55071 23.1754C7.64375 23.1734 10.8638 23.1809 14.7063 23.192C20.5397 23.2089 21.7076 23.2014 21.7826 23.1466C21.8437 23.1019 21.929 22.859 22.0498 22.3851L22.2274 21.6892L22.5779 21.665C23.0762 21.6306 23.0655 21.6563 23.0655 20.4958C23.0655 19.2844 23.1051 19.3451 22.314 19.3451H21.7558L21.9103 19.1207C22.4075 18.398 22.4278 17.2804 21.9569 16.5467C21.7727 16.2595 21.4249 15.927 21.1314 15.7572C20.6647 15.4872 20.5751 15.4785 18.2476 15.4785H16.1056L16.1043 11.5274L16.1031 7.57631L15.995 7.25935C15.6862 6.35347 14.924 5.65503 14.0452 5.47257L13.7856 5.41868V4.74547C13.7856 4.13668 13.7764 4.06303 13.6889 3.97559C13.6358 3.92243 13.5488 3.87893 13.4956 3.87893C13.4008 3.87893 13.3989 3.84669 13.3989 2.23565C13.3989 0.656802 13.3952 0.588606 13.3023 0.495713C13.2085 0.401949 13.142 0.399098 11.0911 0.400161C9.2323 0.401128 8.95709 0.410794 8.81606 0.480343ZM10.3057 1.36568V1.55901H9.72568H9.14569V1.42368C9.14569 1.20005 9.21606 1.17236 9.78368 1.17236H10.3057V1.36568ZM12.6256 2.52564V3.87893H11.8523H11.079V2.52564V1.17236H11.8523H12.6256V2.52564ZM13.0123 5.03889V5.42555H11.8523H10.6923V5.03889V4.65224H11.8523H13.0123V5.03889ZM13.9995 6.309C14.536 6.48662 15.0409 6.98797 15.224 7.52488C15.3014 7.75185 15.3085 8.30326 15.3211 15.104L15.3347 22.4383H11.9045H8.4744L8.6046 22.1604L8.73486 21.8825L8.74844 19.8405L8.76202 17.7985H10.7905C12.7545 17.7985 12.8221 17.7954 12.9156 17.7018C13.0104 17.607 13.0123 17.5407 13.0123 14.3186C13.0123 11.0964 13.0104 11.0301 12.9156 10.9354C12.8218 10.8415 12.7545 10.8387 10.5957 10.8387H8.37237L8.37333 9.52166C8.37386 8.79726 8.396 8.05237 8.42258 7.8663C8.54303 7.02291 9.17169 6.37604 9.99281 6.25067C10.1516 6.2264 11.0645 6.21185 12.0215 6.21838C13.4784 6.22824 13.8002 6.24298 13.9995 6.309ZM17.8076 6.30204C17.458 6.43635 17.1113 6.79014 16.9751 7.15152C16.834 7.52566 16.8548 8.14648 17.019 8.46382C17.4955 9.38483 18.8018 9.58782 19.5349 8.85478C20.3072 8.08244 20.0287 6.67342 19.0297 6.29967C18.673 6.16623 18.1584 6.16724 17.8076 6.30204ZM18.8005 7.11691C19.4293 7.50023 19.1605 8.47011 18.4255 8.47011C17.6906 8.47011 17.4218 7.50023 18.0505 7.11691C18.2573 6.99082 18.5938 6.99082 18.8005 7.11691ZM6.0524 10.0654V10.452H4.89242H3.73244V10.0654V9.67874H4.89242H6.0524V10.0654ZM21.7846 9.77057C21.3649 9.96534 21.1315 10.3518 21.1332 10.8492C21.1356 11.5364 21.6018 11.9987 22.2921 11.9987C22.9879 11.9987 23.45 11.5358 23.45 10.8387C23.45 10.3349 23.1967 9.93378 22.7649 9.7537C22.5168 9.65017 22.0259 9.65863 21.7846 9.77057ZM22.5338 10.597C22.5875 10.6507 22.6305 10.7581 22.6305 10.8387C22.6305 10.9193 22.5875 11.0267 22.5338 11.0804C22.4801 11.1341 22.3727 11.177 22.2921 11.177C22.2116 11.177 22.1042 11.1341 22.0505 11.0804C21.9968 11.0267 21.9538 10.9193 21.9538 10.8387C21.9538 10.7581 21.9968 10.6507 22.0505 10.597C22.1042 10.5433 22.2116 10.5004 22.2921 10.5004C22.3727 10.5004 22.4801 10.5433 22.5338 10.597ZM5.66574 11.4977C5.66574 11.8656 5.74559 12.1066 5.94453 12.339C6.16806 12.6002 6.41345 12.7163 6.91224 12.797C7.42215 12.8796 7.65912 13.0276 7.83805 13.3752L7.96154 13.6151L7.97531 17.4267C7.98426 19.9086 7.97159 21.3339 7.93897 21.5121C7.87348 21.87 7.68363 22.1356 7.38252 22.2907L7.14274 22.4141L5.0771 22.429C2.83215 22.4453 2.57077 22.4248 2.26096 22.2082C1.94651 21.9884 1.83906 21.715 1.81021 21.0612L1.78566 20.505H3.62906C5.40799 20.505 5.4758 20.5017 5.56908 20.4084C5.66362 20.3138 5.66574 20.2473 5.66574 17.4118C5.66574 14.5763 5.66362 14.5098 5.56908 14.4152C5.4758 14.322 5.40799 14.3186 3.62867 14.3186H1.78498L1.8163 13.944C1.87715 13.2171 2.15729 12.9129 2.87261 12.797C3.10204 12.7599 3.37304 12.6867 3.47483 12.6344C3.88049 12.4257 4.1163 12.0199 4.11804 11.5274L4.1191 11.2254H4.89242H5.66574V11.4977ZM12.239 14.3186V17.0252H10.5011H8.76328L8.74907 15.1523L8.73486 13.2794L8.55361 12.9516C8.37662 12.6313 8.37237 12.6118 8.37237 12.1178V11.612H10.3057H12.239V14.3186ZM17.8076 11.7152C17.458 11.8495 17.1113 12.2033 16.9751 12.5647C16.834 12.9388 16.8548 13.5596 17.019 13.877C17.2884 14.3977 17.8105 14.7052 18.4255 14.7052C19.3357 14.7052 19.9722 14.0688 19.9722 13.1586C19.9722 12.2407 19.3327 11.6078 18.4116 11.6145C18.1826 11.6162 17.9754 11.6507 17.8076 11.7152ZM18.8005 12.5301C19.4293 12.9134 19.1605 13.8833 18.4255 13.8833C18.0132 13.8833 17.7009 13.571 17.7009 13.1586C17.7009 12.7463 18.0132 12.434 18.4255 12.434C18.5575 12.434 18.705 12.4718 18.8005 12.5301ZM4.89242 17.4118V19.7317H3.34578H1.79914V17.4118V15.0919H3.34578H4.89242V17.4118ZM20.1593 16.3025C20.6931 16.3892 21.0574 16.6373 21.3039 17.0822C21.4335 17.3162 21.4463 17.3805 21.4463 17.7985C21.4463 18.2173 21.4337 18.2804 21.3027 18.5169C21.158 18.7782 20.8968 19.0269 20.619 19.1678C20.3337 19.3125 19.8591 19.3444 17.9785 19.3447L16.1056 19.3451V17.7985V16.2518L17.9785 16.2522C19.035 16.2524 19.9856 16.2744 20.1593 16.3025ZM19.2275 16.78C18.983 16.9742 18.6904 17.0252 17.819 17.0252C17.1366 17.0252 17.0639 17.0335 16.9756 17.1218C16.8426 17.2548 16.8444 17.5706 16.9789 17.7051C17.0749 17.8011 17.1209 17.8046 18.1268 17.7897L19.1747 17.7743L19.4799 17.6089C19.8551 17.4054 19.9722 17.265 19.9722 17.0186C19.9722 16.6314 19.5747 16.504 19.2275 16.78ZM13.8823 17.1218C13.8017 17.2024 13.7856 17.2829 13.7856 17.6051C13.7856 18.0714 13.8614 18.1851 14.1723 18.1851C14.4831 18.1851 14.5589 18.0714 14.5589 17.6051C14.5589 17.1389 14.4831 17.0252 14.1723 17.0252C14.0434 17.0252 13.9467 17.0574 13.8823 17.1218ZM13.8823 19.0551C13.7937 19.1437 13.7856 19.2162 13.7856 19.9251C13.7856 20.6339 13.7937 20.7064 13.8823 20.795C13.9467 20.8595 14.0434 20.8917 14.1723 20.8917C14.3012 20.8917 14.3978 20.8595 14.4623 20.795C14.5509 20.7064 14.5589 20.6339 14.5589 19.9251C14.5589 19.2162 14.5509 19.1437 14.4623 19.0551C14.3978 18.9907 14.3012 18.9584 14.1723 18.9584C14.0434 18.9584 13.9467 18.9907 13.8823 19.0551ZM22.2921 20.505V20.8917H19.1989H16.1056V20.505V20.1184H19.1989H22.2921V20.505ZM21.3727 21.7012C21.3721 21.7212 21.3326 21.8897 21.2851 22.0758L21.1985 22.4141L18.652 22.4267L16.1056 22.4392V22.0521V21.665H18.7397C20.1885 21.665 21.3733 21.6813 21.3727 21.7012Z" fill="#0B1547"/>
</svg>
