<svg width="25" height="24" viewBox="0 0 25 24" fill="none" xmlns="http://www.w3.org/2000/svg">
<g clip-path="url(#clip0_536_173)">
<path fill-rule="evenodd" clip-rule="evenodd" d="M3.04481 1.29136L2.9322 1.38272L2.91841 2.96734L2.90463 4.55191L3.04591 4.6936C3.17765 4.82566 3.21165 4.83528 3.54858 4.83528H3.90998V5.71642V6.5975L3.75497 6.63099C3.66973 6.64936 3.46821 6.72398 3.30724 6.79673C2.56145 7.13381 1.89966 7.77038 1.54856 8.48816C1.1388 9.32601 1.17066 8.78181 1.15492 15.2103C1.14271 20.2107 1.15001 20.9527 1.21354 21.1721C1.30726 21.4954 1.65197 21.8862 1.97731 22.0382L2.21675 22.15L8.2087 22.1504L14.2006 22.1509L14.4621 22.2669C14.7908 22.4127 15.4031 22.5971 15.9296 22.7089C16.5435 22.8392 17.9773 22.8276 18.6244 22.687C21.5645 22.0483 23.6775 19.901 24.2589 16.961C24.3899 16.2985 24.3777 14.9258 24.2348 14.2584C23.919 12.7834 23.3025 11.6449 22.2532 10.5989C21.2416 9.59058 20.1978 9.01146 18.7914 8.6782C17.9972 8.49007 16.422 8.46965 15.8342 8.63989C15.7855 8.654 15.7133 8.56522 15.6083 8.36231C15.413 7.98476 15.1012 7.60224 14.7495 7.30845C14.448 7.05666 13.7339 6.67495 13.4723 6.62573L13.3062 6.59444V5.71489V4.83528H13.6676C14.0046 4.83528 14.0386 4.82566 14.1703 4.6936L14.3116 4.55191L14.2978 2.97657C14.2849 1.50541 14.278 1.39454 14.1932 1.30059L14.1023 1.19995H8.62986C3.31382 1.19995 3.15418 1.20258 3.04481 1.29136ZM13.497 2.9937V4.02211H8.60811H3.71919V2.9937V1.96528H8.60811H13.497V2.9937ZM12.4954 5.64844V6.46161H8.60811H4.72083V5.64844V4.83528H8.60811H12.4954V5.64844ZM13.2721 7.42564C13.9147 7.64544 14.4397 8.05216 14.8053 8.61348L14.9763 8.87599L14.7293 8.96018C13.755 9.29229 12.594 10.1007 11.8437 10.9694L11.5653 11.2917L6.75986 11.2922L1.95441 11.2928L1.95522 10.5872C1.95623 9.75359 2.02696 9.36231 2.26363 8.88202C2.65594 8.08569 3.47265 7.4763 4.34679 7.32758C4.48797 7.30352 6.45155 7.28745 8.7512 7.29147L12.9008 7.29869L13.2721 7.42564ZM18.2485 9.40493C21.4065 9.95148 23.6933 12.7588 23.5465 15.9087C23.3496 20.1334 19.2328 23.0073 15.2642 21.6907C12.6652 20.8285 10.9182 18.4208 10.9124 15.6934C10.9097 14.3837 11.253 13.2344 11.977 12.1299C12.2946 11.6452 13.1709 10.7592 13.6493 10.439C14.4811 9.88226 15.4057 9.52155 16.4065 9.36346C16.7295 9.31247 17.8614 9.33792 18.2485 9.40493ZM10.8227 12.4952C10.5622 13.0148 10.2795 13.8859 10.1805 14.4737C10.0991 14.9572 10.0677 16.248 10.1324 16.4523L10.1647 16.5544H6.05953H1.95441V14.3302V12.1059H6.48613H11.0179L10.8227 12.4952ZM13.6548 12.442C13.5156 12.4972 13.4322 12.6332 13.2319 13.1312C12.7645 14.2939 12.5991 15.6039 12.7879 16.6501C13.0143 17.9046 13.8463 19.0938 14.8741 19.6321C15.5434 19.9826 15.7118 20.0121 17.1478 20.0307C18.313 20.0458 18.4744 20.0382 18.8172 19.9518C19.2944 19.8317 19.8769 19.5408 20.2551 19.2338C20.8846 18.723 21.4817 17.7869 21.7045 16.961C21.8342 16.4806 21.8839 15.2745 21.7987 14.6782C21.6743 13.8076 21.3848 12.8821 21.1886 12.7273C21.0429 12.6123 20.9004 12.6091 20.3141 12.7077C19.439 12.8548 18.476 13.2335 17.6849 13.7416L17.3177 13.9775L16.9695 13.7178C16.7779 13.575 16.4689 13.3687 16.2828 13.2593C15.471 12.7823 13.972 12.3162 13.6548 12.442ZM14.7187 13.4677C15.6733 13.788 16.322 14.1709 16.9074 14.7596C17.3599 15.2147 17.596 15.6023 17.7968 16.2196C17.9972 16.8354 18.0067 17.4526 17.8241 17.9894C17.7091 18.3274 17.4884 18.7768 17.415 18.8223C17.3967 18.8336 16.9769 18.0535 16.4821 17.0888C15.9873 16.124 15.5641 15.3144 15.5416 15.2895C15.4894 15.2317 14.8325 15.5456 14.8325 15.6283C14.8325 15.6612 15.2398 16.4804 15.7374 17.4487L16.6424 19.2092L16.459 19.2236C15.9768 19.2615 15.1794 18.9345 14.7142 18.508C13.5183 17.412 13.2253 15.7468 13.8799 13.7668C14.0061 13.3854 14.0509 13.3018 14.129 13.3018C14.1814 13.3018 14.4467 13.3764 14.7187 13.4677ZM20.795 13.8877C21.148 15.1991 21.1001 16.5214 20.6683 17.3838C20.3207 18.0781 19.7658 18.6508 19.1584 18.9419C18.7958 19.1157 18.2476 19.2777 18.1962 19.2262C18.184 19.2139 18.2597 19.0398 18.3645 18.8393C18.6538 18.2856 18.7576 17.8388 18.7562 17.1523C18.7553 16.7242 18.7297 16.4837 18.6555 16.206C18.5429 15.7846 18.2525 15.1355 18.0347 14.8179L17.8884 14.6046L18.1423 14.4356C18.6817 14.0764 19.3207 13.7939 20.0029 13.6128C20.6905 13.4303 20.67 13.4233 20.795 13.8877ZM10.4351 17.8579C10.5207 18.1275 10.6759 18.5286 10.7799 18.749C10.884 18.9695 10.9691 19.1578 10.9691 19.1676C10.9691 19.1773 9.75641 19.1853 8.27424 19.1853H5.57937V19.5679V19.9506L8.54849 19.9517L11.5176 19.9528L11.6607 20.1481C11.7394 20.2556 12.047 20.5784 12.3443 20.8655L12.8848 21.3876L7.64617 21.3746L2.40753 21.3617L2.24713 21.2469C1.96076 21.0421 1.95441 20.9953 1.95441 19.0911V17.3676H6.11701H10.2796L10.4351 17.8579Z" fill="#0B1547"/>
</g>
<defs>
<clipPath id="clip0_536_173">
<rect width="24" height="24" fill="white" transform="translate(0.75)"/>
</clipPath>
</defs>
</svg>
