<svg width="22" height="22" viewBox="0 0 22 22" fill="none" xmlns="http://www.w3.org/2000/svg">
<path fill-rule="evenodd" clip-rule="evenodd" d="M3.85113 16.6455C3.53018 16.5526 3.23735 16.3874 2.99733 16.1639C2.75731 15.9403 2.57715 15.665 2.47205 15.361C1.87148 13.7899 1.69353 7.22954 2.85018 5.93446C3.23514 5.51316 3.77864 5.25377 4.36272 5.21261C7.46565 4.89414 17.0525 4.93661 18.1535 5.31876C18.4632 5.41466 18.7461 5.5762 18.9811 5.7913C19.2161 6.00639 19.397 6.26945 19.5104 6.56077C20.1665 8.18494 20.1888 14.0871 19.4214 15.6476C19.2178 16.0538 18.877 16.3828 18.4538 16.5818C17.2972 17.1338 5.38591 17.1231 3.85113 16.6455ZM8.778 13.567L14.3388 10.807L8.778 8.0257V13.567Z" fill="white"/>
</svg>
